<svg xmlns="http://www.w3.org/2000/svg" viewBox="0 0 64 64">
  <defs>
    <linearGradient id="branch" x1="0%" x2="100%" y1="0%" y2="100%">
      <stop offset="0%" stop-color="#a94b32" />
      <stop offset="100%" stop-color="#2e5947" />
    </linearGradient>
  </defs>
  <rect width="64" height="64" rx="18" fill="#f4ecdf" />
  <path
    d="M16 19c0-3.314 2.686-6 6-6h4c3.314 0 6 2.686 6 6v2c0 1.37-.463 2.632-1.241 3.637L43 30.5c3.011 1.432 5 4.493 5 7.893V43c0 4.418-3.582 8-8 8h-3c-2.761 0-5-2.239-5-5v-3.579c0-2.223 1.476-4.176 3.615-4.781l4.106-1.163-11.49-5.47A5.972 5.972 0 0 1 22 33h-2c-3.314 0-6-2.686-6-6v-8Zm8 0v8h2c1.105 0 2-.895 2-2v-6h-4Zm16 22.237-2.385.676A1 1 0 0 0 37 42.875V45h3a4 4 0 0 0 4-4v-2.607c0-1.889-1.104-3.608-2.821-4.425L36 31.511l-5.15 1.946L40 41.237Z"
    fill="url(#branch)"
  />
</svg>
